<svg xmlns="http://www.w3.org/2000/svg" viewBox="0 0 1080 1080"><defs><style>.cls-1{fill:#f2c66d;}</style></defs><g id="Capa_2" data-name="Capa 2"><path class="cls-1" d="M992,871.26l-5.92-218.75-84.3-235.43H677.23V282.64H501.86V330.9H629v362h48.26V465.35h190.6l70.24,196.18L942.45,823H887.39a125,125,0,0,0-233.29,0H440.45A130.35,130.35,0,0,0,315.7,729.92C256.82,729.92,207,769.24,191,823H136.23V536.27H88v335h98.08c5.71,66.53,61.67,118.93,129.65,118.93s124-52.4,129.65-118.93H645.83a125,125,0,0,0,249.83,0ZM315.7,941.93a81.87,81.87,0,1,1,81.88-81.87A82,82,0,0,1,315.7,941.93Zm455,2.59a76.71,76.71,0,1,1,76.7-76.7A76.79,76.79,0,0,1,770.74,944.52Z"/><path class="cls-1" d="M307.51,523.52C187.05,523.52,89,425.66,89,305.37s98-218.15,218.47-218.15S526,185.08,526,305.37,428,523.52,307.51,523.52Zm0-388c-93.85,0-170.21,76.21-170.21,169.89s76.36,169.89,170.21,169.89,170.21-76.21,170.21-169.89S401.37,135.48,307.51,135.48Z"/><polygon class="cls-1" points="408.78 330.04 281.88 330.04 281.88 204.22 330.14 204.22 330.14 281.78 408.78 281.78 408.78 330.04"/></g></svg>