<svg xmlns="http://www.w3.org/2000/svg" viewBox="0 0 1080 1080"><defs><style>.cls-1{fill:#f2c66d;}</style></defs><g id="Capa_3" data-name="Capa 3"><path class="cls-1" d="M540,157.69c228.38,0,414.18,150.08,414.18,334.56,0,89.87-22.93,146.21-84.62,207.9L852.67,717l2.49,23.75,16.28,155.36-195.3-75.47L663.89,816l-13,1.88L642.56,819c-45.29,6.59-53.45,7.78-102.56,7.78-228.38,0-414.18-150.09-414.18-334.57S311.62,157.69,540,157.69m0-50.1c-256.41,0-464.28,172.22-464.28,384.66S283.59,876.91,540,876.91c55.77,0,64.86-1.79,118.08-9.5l271.72,105L905,735.57c72.46-72.46,99.3-142.38,99.3-243.32,0-212.44-207.87-384.66-464.28-384.66Z"/><path class="cls-1" d="M623.88,378.74a65.38,65.38,0,0,1,46.18,18.34,75.15,75.15,0,0,1,1.78,106.26l-132.43,137L405.77,503.64A75.14,75.14,0,0,1,407,397.38c13.06-12.77,29.59-18.61,46.48-18.61,21.48,0,43.53,9.44,59.78,26.05l25.59,32.43,25-32.12c16.25-16.81,38.45-26.39,60.07-26.39m0-50.1h0c-30.68,0-61,11.37-85.23,31.57-24.21-20.18-54.58-31.53-85.22-31.53a115.82,115.82,0,0,0-81.51,32.88,125.4,125.4,0,0,0-2,177.11L503.6,675.31l36,36.83,35.81-37,132.44-137a125.39,125.39,0,0,0-3-177.09,115.84,115.84,0,0,0-81-32.43Z"/></g></svg>