<svg xmlns="http://www.w3.org/2000/svg" viewBox="0 0 1080 1080"><defs><style>.cls-1{fill:#f2c66d;}</style></defs><g id="Capa_4" data-name="Capa 4"><path class="cls-1" d="M1002.56,259.7c0-68.55-55.38-124.33-123.47-124.33H199.8c-68.08,0-123.47,55.78-123.47,124.33V712c0,68.55,55.39,124.32,123.47,124.32H450.11V786.59h-123V185.09H797.69V470.53h49.72V185.09h31.68c40.67,0,73.76,33.47,73.76,74.66L954,749.6l49.72-.11ZM277.43,786.59H199.8c-40.67,0-73.75-33.46-73.75-74.6V259.7c0-41.14,33.08-74.61,73.75-74.61h77.63Z"/><path class="cls-1" d="M803,703.14v-92c0-61-46.11-110.46-103-110.46h0c-56.88,0-103,49.46-103,110.46v92H515.36V944.63H882.93V703.14Zm-156.26-92c0-31.5,23.9-57.13,53.27-57.13s53.27,25.63,53.27,57.13v85.7H646.76ZM833.21,894.91H565.08v-142H833.21Z"/></g></svg>